<svg xmlns="http://www.w3.org/2000/svg" width="1957.442" height="311.278" viewBox="0 0 1957.442 311.278">
  <g id="aaron" transform="translate(26.165 -757.072)">
    <path id="Path_478" data-name="Path 478" d="M156.041,11.326,290.267,278.119A11.488,11.488,0,0,1,280,294.769H15.325A11.488,11.488,0,0,1,5.062,278.119L139.287,11.326a9.378,9.378,0,0,1,16.754,0Z" transform="translate(391.248 762.396)" fill="#212e37"/>
    <path id="Path_478-2" data-name="Path 478" d="M156.041,11.326,290.267,278.119A11.488,11.488,0,0,1,280,294.769H15.325A11.488,11.488,0,0,1,5.062,278.119L139.287,11.326a9.378,9.378,0,0,1,16.754,0Z" transform="translate(-30.002 762.396)" fill="#212e37"/>
    <path id="Ellipse_3" data-name="Ellipse 3" d="M158.435,0c87.5,0,158.435,69.682,158.435,155.639S245.936,311.278,158.435,311.278,0,241.6,0,155.639,70.934,0,158.435,0Z" transform="translate(1215.523 757.072)" fill="#212e37"/>
    <path id="Path_481" data-name="Path 481" d="M1157.176,295.774H931.639A18.639,18.639,0,0,1,913,277.135V23.639A18.64,18.64,0,0,1,931.639,5h142.032c10.294,0,24.59,5.851,31.854,13.146q9.674,9.716,16.239,16.633c7.082,7.463,11.613,5.646,11.583-4.643,0-2.025,0-4.192.019-6.5A18.929,18.929,0,0,1,1152.293,5h4.883a18.64,18.64,0,0,1,18.64,18.639v253.5a18.639,18.639,0,0,1-18.639,18.639Z" transform="translate(755.461 761.391)" fill="#212e37"/>
    <path id="path1450" d="M464,23.714v253.5a18.68,18.68,0,0,0,18.639,18.68l228.333.5a8.242,8.242,0,0,0,6.128-13.775l-83.4-92.094c-6.91-7.63-4.344-15.854,4.973-20.2,17.146-7.993,41.69-24.637,48.6-56.1,2.2-10.033,2.021-26.919.311-37.059-7.2-42.708-38.1-63.94-68.442-70.127C609.076,4.986,592.295,5.006,582,4.968c-31.676-.116-74.99-.024-99.361.046A18.71,18.71,0,0,0,464,23.714Z" transform="translate(367.551 761.316)" fill="#212e37"/>
  </g>
</svg>
