<svg xmlns="http://www.w3.org/2000/svg" width="1953.614" height="232.778" viewBox="0 0 1953.614 232.778">
  <g id="contact" transform="translate(23.776 -5558.222)">
    <path id="Path_478" data-name="Path 478" d="M115.321,9.945l98.315,195.416a8.414,8.414,0,0,1-7.517,12.2H12.251a8.414,8.414,0,0,1-7.517-12.2L103.049,9.945a6.869,6.869,0,0,1,12.272,0Z" transform="translate(1160.09 5565.028)" fill="#212e37"/>
    <path id="Ellipse_3" data-name="Ellipse 3" d="M116.048,0C180.139,0,232.1,51.039,232.1,114S180.139,228,116.048,228,0,176.96,0,114,51.956,0,116.048,0Z" transform="translate(258.752 5563)" fill="#212e37"/>
    <path id="Path_481" data-name="Path 481" d="M1091.85,217.982h-165.2A13.653,13.653,0,0,1,913,204.329V18.653A13.653,13.653,0,0,1,926.653,5h104.033c7.54,0,18.011,4.286,23.332,9.629q7.086,7.117,11.894,12.183c5.188,5.466,8.506,4.135,8.485-3.4,0-1.483,0-3.07.014-4.761A13.865,13.865,0,0,1,1088.273,5h3.577A13.653,13.653,0,0,1,1105.5,18.653V204.329a13.652,13.652,0,0,1-13.652,13.653Z" transform="translate(-323.854 5566.191)" fill="#212e37"/>
    <path id="Path_481-2" data-name="Path 481" d="M880.493,208.155V134.012a13.653,13.653,0,0,0-13.653-13.653h-5.188A13.653,13.653,0,0,1,848,106.706V15.653A13.653,13.653,0,0,1,861.653,2h155.64a13.653,13.653,0,0,1,13.653,13.653v91.054a13.653,13.653,0,0,1-13.653,13.653h-3.988a13.653,13.653,0,0,0-13.653,13.653v74.144A13.653,13.653,0,0,1,986,221.808H894.146a13.653,13.653,0,0,1-13.653-13.653Z" transform="translate(52.428 5565.096)" fill="#212e37"/>
    <path id="Path_481-3" data-name="Path 481" d="M880.493,208.155V134.012a13.653,13.653,0,0,0-13.653-13.653h-5.188A13.653,13.653,0,0,1,848,106.706V15.653A13.653,13.653,0,0,1,861.653,2h155.64a13.653,13.653,0,0,1,13.653,13.653v91.054a13.653,13.653,0,0,1-13.653,13.653h-3.988a13.653,13.653,0,0,0-13.653,13.653v74.144A13.653,13.653,0,0,1,986,221.808H894.146a13.653,13.653,0,0,1-13.653-13.653Z" transform="translate(898.893 5565.096)" fill="#212e37"/>
    <path id="path987" d="M127.418,17.231c.027,26.873,0,69.761-.01,90.837-.005,6.916,3.955,16.486,8.845,21.376L201.19,194.38c4.89,4.89,5.05,13.01-.3,17.381A117.388,117.388,0,0,1,139.213,237.6a134.036,134.036,0,0,1-24.989-.2C67.37,231.624,15.962,195.264,10.168,132.234a149.793,149.793,0,0,1,.17-25C17.183,45.4,72.176,11.518,114.921,5.635c6.846-.942,12.491,4.681,12.5,11.6Z" transform="translate(-33.504 5552.69)" fill="#212e37"/>
    <path id="path987-2" data-name="path987" d="M127.418,17.231c.027,26.873,0,69.761-.01,90.837-.005,6.916,3.955,16.486,8.845,21.376L201.19,194.38c4.89,4.89,5.05,13.01-.3,17.381A117.388,117.388,0,0,1,139.213,237.6a134.036,134.036,0,0,1-24.989-.2C67.37,231.624,15.962,195.264,10.168,132.234a149.793,149.793,0,0,1,.17-25C17.183,45.4,72.176,11.518,114.921,5.635c6.846-.942,12.491,4.681,12.5,11.6Z" transform="translate(1463.191 5552.69)" fill="#212e37"/>
  </g>
</svg>
