<svg xmlns="http://www.w3.org/2000/svg" width="1920" height="226.441" viewBox="0 0 1920 226.441">
  <g id="history" transform="translate(-3513.5 -2681)">
    <path id="path1450" d="M464,18.371V199.828A13.372,13.372,0,0,0,477.342,213.2l163.445.36a5.9,5.9,0,0,0,4.386-9.86l-59.7-65.923c-4.946-5.462-3.109-11.349,3.56-14.458,12.273-5.722,29.842-17.636,34.791-40.159,1.578-7.182,1.447-19.269.223-26.528-5.156-30.572-27.269-45.77-48.992-50.2-7.209-1.47-19.221-1.455-26.59-1.482-22.674-.083-53.679-.017-71.124.033A13.393,13.393,0,0,0,464,18.371Z" transform="translate(4481.885 2685.28)" fill="#212e37"/>
    <ellipse id="Ellipse_23" data-name="Ellipse 23" cx="111.5" cy="111" rx="111.5" ry="111" transform="translate(4632.5 2683.999)" fill="#212e37"/>
    <path id="Path_484" data-name="Path 484" d="M1042.327,221.534a103.047,103.047,0,0,1-32.8-17.451c-5.207-4.127-5.164-11.822-.464-16.523L1138.446,58.187c4.7-4.7,12.4-4.743,16.522.465a103.053,103.053,0,0,1,17.448,32.794,125.308,125.308,0,0,1,4.571,23.582,103.815,103.815,0,0,1-3.428,35.409,124.983,124.983,0,0,1-9.019,22.263,103.406,103.406,0,0,1-59.352,48.834,125.294,125.294,0,0,1-23.583,4.567,104.107,104.107,0,0,1-15.7,0,125.179,125.179,0,0,1-23.583-4.567ZM978.333,131.1A103.555,103.555,0,0,1,1011.27,24.418a125.742,125.742,0,0,1,20.02-13.275,103.555,103.555,0,0,1,111.091,11.179c5.206,4.128,5.167,11.819.466,16.52L1013.462,168.221c-4.7,4.7-12.4,4.744-16.524-.463a102.9,102.9,0,0,1-9.566-14.4,125.692,125.692,0,0,1-9.046-22.253Z" transform="translate(3100.32 2681.044)" fill="#212e37"/>
    <path id="Path_481" data-name="Path 481" d="M878.843,197.688V127.309a12.959,12.959,0,0,0-12.959-12.959h-4.925A12.96,12.96,0,0,1,848,101.39V14.959A12.959,12.959,0,0,1,860.96,2H1008.7a12.959,12.959,0,0,1,12.959,12.959V101.39a12.959,12.959,0,0,1-12.959,12.959h-3.786a12.959,12.959,0,0,0-12.959,12.959v70.379a12.959,12.959,0,0,1-12.959,12.959H891.8a12.959,12.959,0,0,1-12.959-12.959Z" transform="translate(3521.054 2688.193)" fill="#212e37"/>
    <rect id="Rectangle_492" data-name="Rectangle 492" width="123" height="205" transform="translate(3862.5 2692.999)" fill="#212e37"/>
    <path id="Path_486" data-name="Path 486" d="M417.331,4877.832a10.342,10.342,0,0,1-10.342-10.343v-98.74l-44.518-78.9A12.638,12.638,0,0,1,373.479,4671H562.3a12.639,12.639,0,0,1,11.008,18.85l-43.369,76.863v100.775a10.342,10.342,0,0,1-10.342,10.343Z" transform="translate(4858.542 -1979.659)" fill="#212e37"/>
    <g id="Group_275" data-name="Group 275" transform="translate(3513.5 2692.712)">
      <rect id="Rectangle_493" data-name="Rectangle 493" width="124" height="205" transform="translate(0 0.287)" fill="#212e37"/>
      <rect id="Rectangle_494" data-name="Rectangle 494" width="123" height="205" transform="translate(135 0.287)" fill="#212e37"/>
    </g>
  </g>
</svg>
