<svg xmlns="http://www.w3.org/2000/svg" width="1938.251" height="325.637" viewBox="0 0 1938.251 325.637">
  <g id="tools" transform="translate(-19114.252 -5749)">
    <circle id="Ellipse_22" data-name="Ellipse 22" cx="162.819" cy="162.819" r="162.819" transform="translate(19506.609 5749)" fill="#212e37"/>
    <circle id="Ellipse_23" data-name="Ellipse 23" cx="162.819" cy="162.819" r="162.819" transform="translate(19949.744 5749)" fill="#212e37"/>
    <path id="Path_484" data-name="Path 484" d="M1069.052,308.934A143.691,143.691,0,0,1,1023.32,284.6c-7.261-5.755-7.2-16.485-.646-23.04l180.411-180.4c6.555-6.555,17.284-6.613,23.039.648a143.693,143.693,0,0,1,24.33,45.73,174.757,174.757,0,0,1,6.375,32.884,144.787,144.787,0,0,1-4.78,49.376,174.3,174.3,0,0,1-12.577,31.044,144.194,144.194,0,0,1-82.762,68.1,174.723,174.723,0,0,1-32.885,6.369,145.167,145.167,0,0,1-21.887,0,174.559,174.559,0,0,1-32.885-6.369Zm-89.237-126.1a144.4,144.4,0,0,1,45.93-148.763,175.344,175.344,0,0,1,27.917-18.511,144.4,144.4,0,0,1,154.91,15.588c7.26,5.757,7.2,16.482.65,23.037L1028.8,234.591c-6.555,6.555-17.286,6.615-23.042-.645A143.51,143.51,0,0,1,992.42,213.86a175.265,175.265,0,0,1-12.614-31.031Z" transform="translate(19795.262 5754.08)" fill="#212e37"/>
    <path id="Path_485" data-name="Path 485" d="M776.975,318.031H765.786A16.785,16.785,0,0,1,749,301.245V29.321a16.786,16.786,0,0,1,16.785-16.785H888.88a16.786,16.786,0,0,1,16.785,16.785V153.646a16.785,16.785,0,0,0,16.785,16.785H933.64a16.785,16.785,0,0,1,16.786,16.785V301.245a16.786,16.786,0,0,1-16.786,16.785H776.975Z" transform="translate(19642.201 5746.535)" fill="#212e37"/>
    <path id="Path_481" data-name="Path 481" d="M893.056,287.859V185.05a18.931,18.931,0,0,0-18.931-18.931h-7.194A18.931,18.931,0,0,1,848,147.188V20.931A18.931,18.931,0,0,1,866.931,2h215.814a18.931,18.931,0,0,1,18.931,18.931V147.188a18.931,18.931,0,0,1-18.931,18.931h-5.53a18.931,18.931,0,0,0-18.931,18.931V287.859a18.931,18.931,0,0,1-18.931,18.931H911.987a18.931,18.931,0,0,1-18.931-18.931Z" transform="translate(18266.252 5758.75)" fill="#212e37"/>
  </g>
</svg>
