<svg xmlns="http://www.w3.org/2000/svg" width="1988.74" height="334.146" viewBox="0 0 1988.74 334.146">
  <g id="about" transform="translate(-19391 -4840)">
    <circle id="Ellipse_15" data-name="Ellipse 15" cx="167.073" cy="167.073" r="167.073" transform="translate(20212.275 4840)" fill="#212e37"/>
    <path id="Path_478" data-name="Path 478" d="M374.921,321.033H245.129A20.129,20.129,0,0,1,225,300.9V25.133A20.129,20.129,0,0,1,245.129,5H354.792c11.117,0,29.248-.232,40.13,1.953a99.805,99.805,0,0,1,77.889,77.482c2.243,10.869,2.272,29.112.037,39.982-2.156,10.488.276,25.341,5.759,34.993a108.244,108.244,0,0,1,10.717,80.326c-2.761,10.752-10.471,27.247-16.95,36.261a108.245,108.245,0,0,1-68.5,43.295,130.626,130.626,0,0,1-28.95,1.377Z" transform="translate(19598.781 4843.055)" fill="#212e37"/>
    <path id="Path_479" data-name="Path 479" d="M168.153,11.749,313.285,303.8a12.475,12.475,0,0,1-11.171,18.026H16.277A12.475,12.475,0,0,1,5.106,303.8L150.237,11.749a10,10,0,0,1,17.916,0Z" transform="translate(19387.197 4843.867)" fill="#212e37"/>
    <path id="path875" d="M636.111,9.06,761.4,149.417a17.968,17.968,0,0,0,26.809,0L913.984,8.507a7.764,7.764,0,0,1,13.556,5.112l.982,130.687c.084,11.117-.858,29.11-3.3,39.951-8.7,38.7-37.742,121.571-128.042,133.159a203.891,203.891,0,0,1-40.164.359c-90.775-10.109-121.264-94.458-130.583-133.567-2.576-10.809-3.729-28.783-3.729-39.9V14.173a7.677,7.677,0,0,1,13.4-5.112Z" transform="translate(20046.504 4844.151)" fill="#212e37"/>
    <path id="Path_481" data-name="Path 481" d="M894.719,298.407V191.8a19.63,19.63,0,0,0-19.63-19.63H867.63A19.63,19.63,0,0,1,848,152.545V21.63A19.63,19.63,0,0,1,867.63,2h223.777a19.63,19.63,0,0,1,19.63,19.63V152.545a19.629,19.629,0,0,1-19.629,19.63h-5.734a19.63,19.63,0,0,0-19.63,19.63v106.6a19.629,19.629,0,0,1-19.629,19.63H914.348a19.63,19.63,0,0,1-19.629-19.63Z" transform="translate(20268.703 4846.052)" fill="#212e37"/>
  </g>
</svg>
